<svg width="2506" height="2498" viewBox="0 0 2506 2498" fill="none" xmlns="http://www.w3.org/2000/svg">
<path d="M701.518 259.521L255.466 689.353M701.518 259.521L733.959 709.628M701.518 259.521L1098.91 527.152M701.518 259.521L1273.28 162.201M255.466 689.353L733.959 709.628M255.466 689.353L373.061 1171.9M255.466 689.353L121.65 1248.95M733.959 709.628L835.333 1058.36M733.959 709.628L373.061 1171.9M733.959 709.628L985.37 778.563M1098.91 527.152L1273.28 162.201M1098.91 527.152L1861.25 324.401M1098.91 527.152L1532.8 904.269M1098.91 527.152L985.37 778.563M1273.28 162.201L1861.25 324.401M1861.25 324.401L1532.8 904.269M1861.25 324.401L2214.04 778.563M1532.8 904.269L985.37 778.563M1532.8 904.269L1889.64 1248.95M1532.8 904.269L1386.82 1496.3M1532.8 904.269L952.929 1471.97M985.37 778.563L835.333 1058.36M1889.64 1248.95L2214.04 778.563M1889.64 1248.95H2396.51M1889.64 1248.95V1767.99M1889.64 1248.95L2319.47 1767.99M1889.64 1248.95L1386.82 1496.3M2214.04 778.563L2396.51 1248.95M2396.51 1248.95L2319.47 1767.99M835.333 1058.36L952.929 1471.97M373.061 1171.9L121.65 1248.95M373.061 1171.9L952.929 1471.97M373.061 1171.9L255.466 1731.49M121.65 1248.95L255.466 1731.49M701.518 2189.71L1244.89 1962.63M701.518 2189.71L1273.28 2364.07M701.518 2189.71L802.893 1767.99M701.518 2189.71L255.466 1731.49M1244.89 1962.63L1273.28 2364.07M1244.89 1962.63L1816.65 2132.94M1244.89 1962.63L1528.74 1731.49M1244.89 1962.63L802.893 1767.99M1273.28 2364.07L1816.65 2132.94M1816.65 2132.94L1889.64 1767.99M1816.65 2132.94L2319.47 1767.99M1816.65 2132.94L1528.74 1731.49M1889.64 1767.99H2319.47M1889.64 1767.99L1528.74 1731.49M1528.74 1731.49L1386.82 1496.3M802.893 1767.99L952.929 1471.97M802.893 1767.99L255.466 1731.49M952.929 1471.97L1386.82 1496.3" stroke="white" stroke-width="40"/>
<path d="M701.518 259.521L255.466 689.353M701.518 259.521L733.959 709.628M701.518 259.521L1098.91 527.152M701.518 259.521L1273.28 162.201M255.466 689.353L733.959 709.628M255.466 689.353L373.061 1171.9M255.466 689.353L121.65 1248.95M733.959 709.628L835.333 1058.36M733.959 709.628L373.061 1171.9M733.959 709.628L985.37 778.563M1098.91 527.152L1273.28 162.201M1098.91 527.152L1861.25 324.401M1098.91 527.152L1532.8 904.269M1098.91 527.152L985.37 778.563M1273.28 162.201L1861.25 324.401M1861.25 324.401L1532.8 904.269M1861.25 324.401L2214.04 778.563M1532.8 904.269L985.37 778.563M1532.8 904.269L1889.64 1248.95M1532.8 904.269L1386.82 1496.3M1532.8 904.269L952.929 1471.97M985.37 778.563L835.333 1058.36M1889.64 1248.95L2214.04 778.563M1889.64 1248.95H2396.51M1889.64 1248.95V1767.99M1889.64 1248.95L2319.47 1767.99M1889.64 1248.95L1386.82 1496.3M2214.04 778.563L2396.51 1248.95M2396.51 1248.95L2319.47 1767.99M835.333 1058.36L952.929 1471.97M373.061 1171.9L121.65 1248.95M373.061 1171.9L952.929 1471.97M373.061 1171.9L255.466 1731.49M121.65 1248.95L255.466 1731.49M701.518 2189.71L1244.89 1962.63M701.518 2189.71L1273.28 2364.07M701.518 2189.71L802.893 1767.99M701.518 2189.71L255.466 1731.49M1244.89 1962.63L1273.28 2364.07M1244.89 1962.63L1816.65 2132.94M1244.89 1962.63L1528.74 1731.49M1244.89 1962.63L802.893 1767.99M1273.28 2364.07L1816.65 2132.94M1816.65 2132.94L1889.64 1767.99M1816.65 2132.94L2319.47 1767.99M1816.65 2132.94L1528.74 1731.49M1889.64 1767.99H2319.47M1889.64 1767.99L1528.74 1731.49M1528.74 1731.49L1386.82 1496.3M802.893 1767.99L952.929 1471.97M802.893 1767.99L255.466 1731.49M952.929 1471.97L1386.82 1496.3" stroke="white" stroke-opacity="0.2" stroke-width="40"/>
<circle cx="259.521" cy="705.573" r="129.261" fill="white"/>
<circle cx="259.521" cy="705.573" r="129.261" stroke="white"/>
<circle cx="259.521" cy="705.573" r="129.261" stroke="white" stroke-opacity="0.2"/>
<circle cx="697.463" cy="259.521" r="129.261" fill="white"/>
<circle cx="697.463" cy="259.521" r="129.261" stroke="white"/>
<circle cx="697.463" cy="259.521" r="129.261" stroke="white" stroke-opacity="0.2"/>
<circle cx="1281.39" cy="129.761" r="129.261" fill="white"/>
<circle cx="1281.39" cy="129.761" r="129.261" stroke="white"/>
<circle cx="1281.39" cy="129.761" r="129.261" stroke="white" stroke-opacity="0.2"/>
<circle cx="1840.98" cy="340.621" r="129.261" fill="white"/>
<circle cx="1840.98" cy="340.621" r="129.261" stroke="white"/>
<circle cx="1840.98" cy="340.621" r="129.261" stroke="white" stroke-opacity="0.2"/>
<circle cx="2222.15" cy="778.563" r="137.371" fill="white"/>
<circle cx="2222.15" cy="778.563" r="137.371" stroke="white"/>
<circle cx="2222.15" cy="778.563" r="137.371" stroke="white" stroke-opacity="0.2"/>
<circle cx="1893.69" cy="1244.89" r="165.756" fill="white"/>
<circle cx="1893.69" cy="1244.89" r="165.756" stroke="white"/>
<circle cx="1893.69" cy="1244.89" r="165.756" stroke="white" stroke-opacity="0.2"/>
<circle cx="2291.08" cy="1755.82" r="133.316" fill="white"/>
<circle cx="2291.08" cy="1755.82" r="133.316" stroke="white"/>
<circle cx="2291.08" cy="1755.82" r="133.316" stroke="white" stroke-opacity="0.2"/>
<circle cx="2372.18" cy="1244.89" r="133.316" fill="white"/>
<circle cx="2372.18" cy="1244.89" r="133.316" stroke="white"/>
<circle cx="2372.18" cy="1244.89" r="133.316" stroke="white" stroke-opacity="0.2"/>
<circle cx="855.609" cy="1050.25" r="157.646" fill="white"/>
<circle cx="855.609" cy="1050.25" r="157.646" stroke="white"/>
<circle cx="855.609" cy="1050.25" r="157.646" stroke="white" stroke-opacity="0.2"/>
<circle cx="133.816" cy="1244.89" r="133.316" fill="white"/>
<circle cx="133.816" cy="1244.89" r="133.316" stroke="white"/>
<circle cx="133.816" cy="1244.89" r="133.316" stroke="white" stroke-opacity="0.2"/>
<circle cx="263.576" cy="1731.49" r="133.316" fill="white"/>
<circle cx="263.576" cy="1731.49" r="133.316" stroke="white"/>
<circle cx="263.576" cy="1731.49" r="133.316" stroke="white" stroke-opacity="0.2"/>
<circle cx="798.838" cy="1772.04" r="133.316" fill="white"/>
<circle cx="798.838" cy="1772.04" r="133.316" stroke="white"/>
<circle cx="798.838" cy="1772.04" r="133.316" stroke="white" stroke-opacity="0.2"/>
<circle cx="701.518" cy="2201.87" r="133.316" fill="white"/>
<circle cx="701.518" cy="2201.87" r="133.316" stroke="white"/>
<circle cx="701.518" cy="2201.87" r="133.316" stroke="white" stroke-opacity="0.2"/>
<circle cx="1277.33" cy="2364.07" r="133.316" fill="white"/>
<circle cx="1277.33" cy="2364.07" r="133.316" stroke="white"/>
<circle cx="1277.33" cy="2364.07" r="133.316" stroke="white" stroke-opacity="0.2"/>
<circle cx="1820.7" cy="2136.99" r="133.316" fill="white"/>
<circle cx="1820.7" cy="2136.99" r="133.316" stroke="white"/>
<circle cx="1820.7" cy="2136.99" r="133.316" stroke="white" stroke-opacity="0.2"/>
<circle cx="1889.64" cy="1767.99" r="56.2702" fill="white"/>
<circle cx="1889.64" cy="1767.99" r="56.2702" stroke="white"/>
<circle cx="1889.64" cy="1767.99" r="56.2702" stroke="white" stroke-opacity="0.2"/>
<circle cx="1240.83" cy="1962.63" r="48.1602" fill="white"/>
<circle cx="1240.83" cy="1962.63" r="48.1602" stroke="white"/>
<circle cx="1240.83" cy="1962.63" r="48.1602" stroke="white" stroke-opacity="0.2"/>
<circle cx="948.874" cy="1467.92" r="121.15" fill="white"/>
<circle cx="948.874" cy="1467.92" r="121.15" stroke="white"/>
<circle cx="948.874" cy="1467.92" r="121.15" stroke="white" stroke-opacity="0.2"/>
<circle cx="1403.04" cy="1492.25" r="96.8204" fill="white"/>
<circle cx="1403.04" cy="1492.25" r="96.8204" stroke="white"/>
<circle cx="1403.04" cy="1492.25" r="96.8204" stroke="white" stroke-opacity="0.2"/>
<path d="M1580.96 1731.49C1580.96 1760.33 1557.58 1783.71 1528.74 1783.71C1499.9 1783.71 1476.53 1760.33 1476.53 1731.49C1476.53 1702.65 1499.9 1679.28 1528.74 1679.28C1557.58 1679.28 1580.96 1702.65 1580.96 1731.49Z" fill="white"/>
<path d="M1580.96 1731.49C1580.96 1760.33 1557.58 1783.71 1528.74 1783.71C1499.9 1783.71 1476.53 1760.33 1476.53 1731.49C1476.53 1702.65 1499.9 1679.28 1528.74 1679.28C1557.58 1679.28 1580.96 1702.65 1580.96 1731.49Z" stroke="white"/>
<path d="M1580.96 1731.49C1580.96 1760.33 1557.58 1783.71 1528.74 1783.71C1499.9 1783.71 1476.53 1760.33 1476.53 1731.49C1476.53 1702.65 1499.9 1679.28 1528.74 1679.28C1557.58 1679.28 1580.96 1702.65 1580.96 1731.49Z" stroke="white" stroke-opacity="0.2"/>
<circle cx="1528.74" cy="904.268" r="117.095" fill="white"/>
<circle cx="1528.74" cy="904.268" r="117.095" stroke="white"/>
<circle cx="1528.74" cy="904.268" r="117.095" stroke="white" stroke-opacity="0.2"/>
<circle cx="985.369" cy="774.508" r="60.3252" fill="white"/>
<circle cx="985.369" cy="774.508" r="60.3252" stroke="white"/>
<circle cx="985.369" cy="774.508" r="60.3252" stroke="white" stroke-opacity="0.2"/>
<circle cx="1102.96" cy="519.042" r="88.7104" fill="white"/>
<circle cx="1102.96" cy="519.042" r="88.7104" stroke="white"/>
<circle cx="1102.96" cy="519.042" r="88.7104" stroke="white" stroke-opacity="0.2"/>
<circle cx="733.958" cy="717.738" r="52.2152" fill="white"/>
<circle cx="733.958" cy="717.738" r="52.2152" stroke="white"/>
<circle cx="733.958" cy="717.738" r="52.2152" stroke="white" stroke-opacity="0.2"/>
<path d="M441.497 1174.82C441.497 1210.37 412.673 1239.2 377.117 1239.2C341.56 1239.2 312.736 1210.37 312.736 1174.82C312.736 1139.26 341.56 1110.44 377.117 1110.44C412.673 1110.44 441.497 1139.26 441.497 1174.82Z" fill="white"/>
<path d="M441.497 1174.82C441.497 1210.37 412.673 1239.2 377.117 1239.2C341.56 1239.2 312.736 1210.37 312.736 1174.82C312.736 1139.26 341.56 1110.44 377.117 1110.44C412.673 1110.44 441.497 1139.26 441.497 1174.82Z" stroke="white"/>
<path d="M441.497 1174.82C441.497 1210.37 412.673 1239.2 377.117 1239.2C341.56 1239.2 312.736 1210.37 312.736 1174.82C312.736 1139.26 341.56 1110.44 377.117 1110.44C412.673 1110.44 441.497 1139.26 441.497 1174.82Z" stroke="white" stroke-opacity="0.2"/>
</svg>
